<?xml version="1.0" encoding="UTF-8" standalone="no"?>
<!-- Created with Inkscape (http://www.inkscape.org/) -->

<svg
   width="135.46667mm"
   height="135.46667mm"
   viewBox="0 0 135.46668 135.46669"
   version="1.1"
   id="svg5"
   xml:space="preserve"
   xmlns="http://www.w3.org/2000/svg"
   xmlns:svg="http://www.w3.org/2000/svg"><defs
     id="defs2"><style
       id="style2">.cls-1{fill-rule:evenodd;}</style><style
       id="style2-7">.cls-1{fill-rule:evenodd;}</style><style
       id="style2-1">.cls-1{fill-rule:evenodd;}</style><style
       id="style2-4">.cls-1{fill-rule:evenodd;}</style><style
       id="style2-8">.cls-1{fill-rule:evenodd;}</style><style
       id="style2-15">.cls-1{fill-rule:evenodd;}</style><style
       id="style2-3">.cls-1{fill-rule:evenodd;}</style><style
       id="style2-0">.cls-1{fill-rule:evenodd;}</style></defs><g
     id="g9076"
     transform="translate(2.9999999e-6,-145.52082)"><path
       id="path8-7"
       style="stroke-width:1.10288"
       class="cls-1"
       d="m 74.471922,153.5883 c -3.848503,0.0403 -7.572755,2.9158 -8.707859,6.65448 -0.71499,2.08902 -0.250406,4.30643 -0.381501,6.45958 -0.02484,3.60747 0.120234,7.22603 -0.127437,10.82539 -2.213698,7.24028 -5.163875,14.34452 -9.515736,20.57648 -2.555278,3.52311 -5.888387,6.78253 -10.17567,8.00751 -0.983569,0.36121 -2.071759,0.46146 -3.009766,0.91015 -0.9036,0.9443 -0.351111,2.36635 -0.483294,3.52383 -0.0098,16.08159 -0.0364,32.16493 -0.0033,48.24544 0.171339,1.97955 1.30189,3.70964 2.696414,5.06295 3.569419,3.87534 8.518614,6.6074 13.823424,6.9881 3.663397,0.30419 7.455429,0.0149 11.170313,0.11902 13.727228,-0.0102 27.455125,-0.006 41.18182,0.0553 2.80617,-0.0925 5.6342,-1.18347 7.51897,-3.31301 3.63665,-3.6597 5.4035,-8.78258 5.91406,-13.83203 0.59878,-1.13911 1.65334,-1.9448 2.29734,-3.05992 3.09019,-4.46625 4.42833,-9.97114 4.35305,-15.36 1.13491,-1.44506 2.11873,-3.02798 2.59544,-4.81997 1.03859,-3.58849 0.70226,-7.41849 0.0139,-10.98884 -0.0402,-0.90433 0.62679,-1.63675 0.80205,-2.50746 1.10988,-3.25626 1.37536,-6.99211 0.54953,-10.23451 -1.28407,-5.10107 -5.42101,-9.07273 -10.15758,-11.10432 -3.63685,-1.64122 -7.66264,-2.14184 -11.62125,-2.09209 -6.05912,0.0458 -12.11878,0.0132 -18.178209,0.0226 0.771555,-5.82942 1.268541,-11.72108 0.338599,-17.56065 -1.107546,-7.20009 -4.895503,-13.94088 -10.570821,-18.5253 -2.905188,-2.35029 -6.499327,-4.17588 -10.322466,-4.05272 z m 0.695313,9.02734 c 3.461448,0.79896 5.907176,3.6393 7.902343,6.39063 2.809537,4.10399 3.880185,9.17643 3.693774,14.09609 -0.05618,6.22473 -1.132076,12.3808 -2.341524,18.46679 0.02789,1.02504 1.229074,1.52033 2.112985,1.27292 9.810691,0.005 19.624697,-0.0772 29.433257,0.0533 3.21972,0.22861 6.54975,1.33937 8.80095,3.73988 1.5965,1.76912 2.04378,4.35817 1.36991,6.61455 -0.31902,1.46914 -1.09652,2.78642 -1.56848,4.19303 -0.34088,1.48159 -0.22227,3.02713 0.23075,4.46755 0.42447,2.24849 0.68014,4.6725 -0.14764,6.85759 -0.62851,1.09281 -2.11228,1.26109 -2.73242,2.33398 -0.42196,1.31109 0.16705,2.67658 0.0271,4.0191 0.0909,4.17034 -0.83501,8.61335 -3.68529,11.80122 -1.06082,1.17747 -2.22231,2.37577 -2.56042,3.98644 -0.43375,1.66054 -0.32817,3.41359 -0.8417,5.06269 -0.56004,2.16008 -1.46848,4.53367 -3.49827,5.70477 -2.00189,0.73236 -4.14222,0.0908 -6.20702,0.24612 -15.164978,-0.0775 -30.333316,0.0508 -45.496306,-0.0855 -3.037179,-0.17927 -5.937363,-1.64163 -7.943434,-3.91892 -0.630574,-0.51436 -0.651872,-1.34233 -0.56417,-2.07767 0,-14.03841 0,-28.07682 0,-42.11523 6.689832,-3.10297 11.664839,-9.03363 15.137089,-15.35262 3.432853,-6.18262 6.150745,-12.80139 7.960801,-19.61164 0.398881,-2.97775 0.07139,-5.98829 0.183447,-8.98066 -0.01247,-2.44583 -0.01468,-4.89219 0.08976,-7.33633 0.214844,0.0573 0.429688,0.11458 0.644532,0.17187 z" /><path
       d="m 4.411497,204.04705 h 31.2887 c 2.436408,10e-6 4.411501,1.97511 4.4115,4.41152 v 59.15844 c -5e-6,2.4364 -1.975096,4.4115 -4.4115,4.41151 H 4.411497 C 1.975093,272.02851 9.9999999e-7,270.05341 -3e-6,267.61701 v -59.12535 c -2e-6,-2.43641 1.975092,-4.41151 4.4115,-4.41152 z m 20.5577,46.25476 c 5.040882,3e-5 7.564424,6.09423 4.000401,9.65823 -3.564022,3.564 -9.658211,1.04041 -9.658201,-4.00047 7e-6,-3.12471 2.533093,-5.65778 5.6578,-5.65776 z"
       style="fill-rule:evenodd;stroke-width:1.10288"
       id="path7266" /></g></svg>
