<?xml version="1.0" encoding="UTF-8" standalone="no"?>
<!-- Created with Inkscape (http://www.inkscape.org/) -->

<svg
   width="135.46681mm"
   height="135.46666mm"
   viewBox="0 0 135.46681 135.46667"
   version="1.1"
   id="svg5"
   xml:space="preserve"
   xmlns="http://www.w3.org/2000/svg"
   xmlns:svg="http://www.w3.org/2000/svg"><defs
     id="defs2"><style
       id="style2">.cls-1{fill-rule:evenodd;}</style><style
       id="style2-7">.cls-1{fill-rule:evenodd;}</style><style
       id="style2-1">.cls-1{fill-rule:evenodd;}</style><style
       id="style2-4">.cls-1{fill-rule:evenodd;}</style><style
       id="style2-8">.cls-1{fill-rule:evenodd;}</style><style
       id="style2-15">.cls-1{fill-rule:evenodd;}</style><style
       id="style2-3">.cls-1{fill-rule:evenodd;}</style><style
       id="style2-0">.cls-1{fill-rule:evenodd;}</style></defs><path
     class="cls-1"
     d="m 56.733874,111.52303 c 14.219,13.71198 34.3241,17.85644 54.429096,9.29196 l 16.8754,6.6135 -5.5884,-13.29313 c 18.7383,-15.023654 15.4315,-35.657769 1.5873,-49.722469 a 48.554093,48.554096 0 0 1 -5.368,15.29922 56.490289,56.490293 0 0 1 -15.5086,17.635995 69.100023,69.100028 0 0 1 -21.670296,11.022484 77.642456,77.642462 0 0 1 -24.7565,3.19653 z m -21.9127,-43.858509 a 3.4279959,3.4279962 0 0 1 0,-6.84497 h 32.9903 a 3.4279959,3.4279962 0 0 1 0,6.84497 z m 0,-18.98074 a 3.4279959,3.4279962 0 0 1 0,-6.84497 h 47.1322 a 3.4279959,3.4279962 0 0 1 0,6.84497 z m 25.0211,-40.6178999 v 0 c 16.0157,0.51806 30.3339,6.1946499 40.573796,14.9795799 10.4603,8.96128 16.7211,21.16319 16.3353,34.46734 v 0 c -0.4078,13.38131 -7.4071,25.18641 -18.396496,33.53044 -10.78,8.178695 -25.4289,12.995519 -41.4005,12.532569 a 70.444768,70.444773 0 0 1 -12.8523,-1.55417 66.664052,66.664057 0 0 1 -10.8792,-3.306744 L 7.3861741,108.85558 16.016774,88.320681 A 48.49898,48.498984 0 0 1 4.4211741,73.649741 40.419491,40.419494 0 0 1 0.01217413,54.128901 c 0.4188,-13.3262 7.41809997,-25.12027 18.40749987,-33.49737 10.78,-8.15665 25.44,-13.0065499 41.4005,-12.5656499 z m -0.1654,6.8119099 h -0.055 c -14.4174,-0.38579 -27.4901,3.90196 -37.0797,11.17681 -9.3911,7.12053 -15.3652999,17.10691 -15.6959999,28.30577 a 33.607587,33.607589 0 0 0 3.6924999,16.21409 42.723192,42.723195 0 0 0 11.7059,14.06471 l 2.0172,1.60928 -4.3209,10.328085 13.3152,-5.235695 1.2896,0.55113 a 60.711903,60.711908 0 0 0 10.9233,3.450045 64.503642,64.503647 0 0 0 11.6729,1.4219 c 14.3292,0.41886 27.5562,-3.868905 37.1017,-11.154765 9.380096,-7.12054 15.354296,-17.0959 15.695996,-28.25066 v 0 c 0.3197,-11.14375 -5.0262,-21.43876 -13.954496,-29.09939 -9.1266,-7.85904 -21.9458,-12.90735 -36.286,-13.34825 z"
     id="path8-5"
     style="stroke-width:1.10225" /></svg>
