<?xml version="1.0" encoding="UTF-8" standalone="no"?>
<!-- Created with Inkscape (http://www.inkscape.org/) -->

<svg
   width="135.46657mm"
   height="135.46666mm"
   viewBox="0 0 135.46657 135.46667"
   version="1.1"
   id="svg5"
   xml:space="preserve"
   xmlns="http://www.w3.org/2000/svg"
   xmlns:svg="http://www.w3.org/2000/svg"><defs
     id="defs2"><style
       id="style2">.cls-1{fill-rule:evenodd;}</style><style
       id="style2-7">.cls-1{fill-rule:evenodd;}</style><style
       id="style2-1">.cls-1{fill-rule:evenodd;}</style><style
       id="style2-4">.cls-1{fill-rule:evenodd;}</style><style
       id="style2-8">.cls-1{fill-rule:evenodd;}</style><style
       id="style2-15">.cls-1{fill-rule:evenodd;}</style><style
       id="style2-3">.cls-1{fill-rule:evenodd;}</style><style
       id="style2-0">.cls-1{fill-rule:evenodd;}</style></defs><path
     id="path2-25"
     style="stroke-width:0.264583"
     d="m 61.048574,3.6865958 c -13.1154,0.27914 -26.4428,13.4189602 -34.0026,22.9924002 13.4012,4.05077 5.6303,15.00484 9.0646,21.41833 -6.1409,-0.73818 -2.1113,8.59092 -0.8863,11.40344 0.5768,1.33879 1.4314,2.52675 2.6485,3.21996 0.7593,0.43127 1.5713,0.62452 2.4127,0.6351 l 0.3654,-0.006 c 0.5715,6.27591 3.2571,9.32649 6.6544,12.35067 -0.2964,0.50006 -1.5507,3.5851 -1.2041,4.0349 v 5.1e-4 c 8.7736,11.35591 30.17045,10.91379 35.31925,-0.0109 l -1.0506,-3.56102 c 3.8418,-3.62743 6.6969,-6.66003 6.8213,-12.83539 2.4924,0.26987 3.7832,-0.19571 4.6643,-2.69338 0.725,-1.84943 1.4948,-3.13254 2.1007,-5.03225 0.6112,-2.27277 0.5373,-4.97921 -1.7937,-6.22804 -0.6112,-0.32544 -1.3042,-0.49754 -2.0371,-0.524 12.530696,-12.11261 6.7257,-34.22642 -11.8851,-36.03088 -5.3123,-6.7303302 -11.23015,-9.2606902 -17.19165,-9.1338102 z M 39.970774,81.058626 C 13.964874,97.330486 2.5691741,88.475116 7.4130533e-5,121.73055 H 86.754424 c -1.8097,-3.78355 -2.8256,-8.01972 -2.8256,-12.49381 0,-8.00098 3.2463,-15.250244 8.493,-20.496934 1.0954,-1.09537 2.278,-2.10102 3.5347,-3.01118 -2.7596,-1.26206 -5.638,-2.7703 -8.6119,-4.67 -6.694,17.97842 -39.34105,16.75869 -47.37385,0 z m 72.948446,5.63324 c -12.4486,0 -22.545396,10.09625 -22.545396,22.544874 0,12.45128 10.096796,22.54798 22.545396,22.54798 12.4513,0 22.5475,-10.0967 22.5475,-22.54798 0,-12.448624 -10.0962,-22.544874 -22.5475,-22.544874 z m 7.889,13.15166 c 0.2566,-0.008 0.5384,0.12848 0.8836,0.483684 l 2.9895,3.0639 c 0.979,0.96838 0.9316,1.54 0.01,2.44223 l -12.0757,12.02251 c -1.9526,1.91293 -1.614,2.02939 -3.5905,0.0661 l -6.9613,-6.92413 c -0.4127,-0.44186 -0.3702,-0.89438 0.082,-1.34152 l 3.4685,-3.59564 c 0.5239,-0.55561 0.9445,-0.50789 1.479,0.003 v -5.2e-4 l 3.8153,3.6039 8.6491,-8.92192 c 0.468,-0.47295 0.8264,-0.888214 1.2542,-0.901754 z" /></svg>
