<?xml version="1.0" encoding="UTF-8" standalone="no"?>
<!-- Created with Inkscape (http://www.inkscape.org/) -->

<svg
   width="135.46657mm"
   height="135.46666mm"
   viewBox="0 0 135.46657 135.46667"
   version="1.1"
   id="svg5"
   xml:space="preserve"
   xmlns="http://www.w3.org/2000/svg"
   xmlns:svg="http://www.w3.org/2000/svg"><defs
     id="defs2"><style
       id="style2">.cls-1{fill-rule:evenodd;}</style><style
       id="style2-7">.cls-1{fill-rule:evenodd;}</style><style
       id="style2-1">.cls-1{fill-rule:evenodd;}</style><style
       id="style2-4">.cls-1{fill-rule:evenodd;}</style><style
       id="style2-8">.cls-1{fill-rule:evenodd;}</style><style
       id="style2-15">.cls-1{fill-rule:evenodd;}</style><style
       id="style2-3">.cls-1{fill-rule:evenodd;}</style><style
       id="style2-0">.cls-1{fill-rule:evenodd;}</style></defs><path
     d="m 85.704734,88.007129 c 2.1172,-1.55496 3.6364,-3.4888 3.2332,-5.64489 -1.841,-1.70497 -3.6677,-4.0632 -3.9865,-7.58163 l -0.2212,0.005 c -0.5109,-0.007 -1.0041,-0.12303 -1.4631,-0.38391 -1.0158,-0.57838 -1.5735,-1.68434 -1.841,-2.9472 -0.3405,-1.59861 -0.2281,-3.49567 -0.063,-4.69265 l 0.063,-0.23336 c 0.354,-0.98742 0.7922,-1.52373 1.3491,-1.75709 l 0.016,-0.007 c -0.254,-4.75536 0.5501,-11.75438 -4.3338,-13.23208 9.4993,-11.91472 19.5675,-15.92289 29.103596,-7.79595 9.2988,0.48736 13.4461,13.66044 7.6727,21.03464 h -0.2448 c 0.5567,0.23336 0.9951,0.76967 1.3494,1.7571 l 0.063,0.23336 c 0.1651,1.19697 0.2776,3.09404 -0.063,4.69265 -0.268,1.26285 -0.8247,2.36881 -1.8412,2.94719 -0.4591,0.26088 -0.9523,0.37703 -1.4632,0.38391 l -0.2212,-0.005 c -0.3188,3.51843 -2.15,5.87666 -3.9912,7.58164 -0.8827,4.72546 7.4655,8.38332 11.1255,9.32497 7.603,1.95951 13.6749,2.25029 15.4035,15.950391 0.074,0.30057 0.1161,0.60352 0.1161,0.91096 a 1.0779125,1.0779126 0 0 1 -1.0784,1.07924 H 91.565434 c 0.082,-0.41831 0.1246,-0.85143 0.1246,-1.29355 0,-1.11284 -0.3196,-2.93633 -0.5146,-4.03012 l -0.095,-0.51091 c -0.3472,-2.1037 -0.7702,-4.245231 -1.2743,-6.277501 l -0.098,-0.4744 c -0.5065,-1.97882 -1.0978,-3.8137 -1.7794,-5.35966 -0.6109,-1.38457 -1.3583,-2.60059 -2.2243,-3.67453 z M 1.2896341,109.62702 A 1.2903729,1.290373 0 0 1 3.4130533e-5,108.33426 c 0,-0.90646 0.428399999467,-3.11995 0.550899999467,-3.85894 0.65249997,-3.93462 1.53119997,-7.867641 2.65189997,-10.446801 3.4804,-7.99942 19.3883999,-8.83153 28.7570999,-12.46796 v -6.85033 c -6.2416,-0.29686 -14.0105,-0.78423 -18.3462,-5.94783 4.7548,-1.7907 6.9461,-7.41442 7.2498,-15.81891 0.2241,-6.24628 -1.0655,-8.20446 1.0631,-14.37111 4.2201,-12.20999 19.8226,-16.38485 28.5141,-9.24057 6.816,-0.72364 13.6824,2.79029 15.1657,13.29928 1.1052,7.8486 -1.2361,12.77144 1.2345,20.00038 1.0616,3.10568 2.9142,5.48825 5.8079,6.88181 -4.432,4.24233 -13.7446,4.78235 -19.5548,5.09138 v 6.9559 c 10.5442,3.742 25.8445,3.17367 29.8741,12.30497 1.1724,2.66119 2.0979,6.719621 2.7765,10.837861 0.1085,0.66781 0.5178,2.80722 0.5178,3.63087 a 1.2916958,1.2916959 0 0 1 -1.2911,1.29276 z"
     id="path2-6"
     style="stroke-width:0.264583" /></svg>
