<?xml version="1.0" encoding="UTF-8" standalone="no"?>
<!-- Created with Inkscape (http://www.inkscape.org/) -->

<svg
   width="135.46667mm"
   height="135.46666mm"
   viewBox="0 0 135.46668 135.46667"
   version="1.1"
   id="svg5"
   inkscape:version="1.2.2 (b0a8486541, 2022-12-01)"
   sodipodi:docname="ui-elements.svg"
   xml:space="preserve"
   xmlns:inkscape="http://www.inkscape.org/namespaces/inkscape"
   xmlns:sodipodi="http://sodipodi.sourceforge.net/DTD/sodipodi-0.dtd"
   xmlns="http://www.w3.org/2000/svg"
   xmlns:svg="http://www.w3.org/2000/svg"><sodipodi:namedview
     id="namedview7"
     pagecolor="#bfbfbf"
     bordercolor="#eeeeee"
     borderopacity="1"
     inkscape:showpageshadow="0"
     inkscape:pageopacity="0"
     inkscape:pagecheckerboard="false"
     inkscape:deskcolor="#505050"
     inkscape:document-units="px"
     showgrid="true"
     showborder="false"
     borderlayer="true"
     shape-rendering="auto"
     showguides="false"
     inkscape:zoom="0.60145517"
     inkscape:cx="1172.1572"
     inkscape:cy="-311.74393"
     inkscape:window-width="1852"
     inkscape:window-height="1080"
     inkscape:window-x="68"
     inkscape:window-y="0"
     inkscape:window-maximized="1"
     inkscape:current-layer="svg5"><inkscape:grid
       type="xygrid"
       id="grid2143"
       visible="true"
       enabled="true"
       color="#0099e5"
       opacity="0.14901961"
       empcolor="#e500dc"
       empopacity="0.16078431"
       empspacing="0"
       dotted="false"
       snapvisiblegridlinesonly="false"
       spacingx="2.6458333"
       spacingy="2.6458333"
       originx="79.374996"
       originy="-277.81251" /></sodipodi:namedview><defs
     id="defs2"><style
       id="style2">.cls-1{fill-rule:evenodd;}</style><style
       id="style2-7">.cls-1{fill-rule:evenodd;}</style><style
       id="style2-1">.cls-1{fill-rule:evenodd;}</style><style
       id="style2-4">.cls-1{fill-rule:evenodd;}</style><style
       id="style2-8">.cls-1{fill-rule:evenodd;}</style><style
       id="style2-15">.cls-1{fill-rule:evenodd;}</style><style
       id="style2-3">.cls-1{fill-rule:evenodd;}</style><style
       id="style2-0">.cls-1{fill-rule:evenodd;}</style></defs><path
     id="path14507"
     style="fill:#000000;stroke-width:0.0346918"
     d="m 106.11133,0.9799538 c -9.884875,0.46041 -19.221145,6.91722 -23.094905,16.0298602 -2.61335,5.98319 -2.99172,12.94194 -0.90159,19.14002 -11.90362,4.95108 -23.80724,9.902171 -35.71087,14.853253 -5.82998,-7.418523 -15.8003,-11.349603 -25.12053,-9.764533 -8.67672,1.37695 -16.5206902,7.268048 -20.1204802,15.302781 -3.38408,7.326069 -3.26571,16.203932 0.49911,23.366521 3.64123,7.15237 10.6130402,12.547711 18.5136602,14.079081 7.11852,1.457599 14.82278,-0.08372 20.73998,-4.332912 2.98245,-2.097618 5.55543,-4.789625 7.45722,-7.904527 11.4391,5.362717 22.87821,10.725434 34.3173,16.08815 -3.69772,9.058832 -1.82592,20.110442 4.6869,27.422782 5.61715,6.50206 14.484535,10.07792 23.044285,9.09112 8.38599,-0.86594 16.24276,-5.9132 20.40217,-13.26551 3.90252,-6.72754 4.72716,-15.18782 2.00655,-22.49607 -2.79101,-7.735824 -9.28089,-14.075864 -17.17267,-16.478549 -7.41854,-2.353184 -15.860795,-1.302122 -22.401285,2.949314 -1.7715,1.128593 -3.41588,2.460238 -4.86933,3.977751 -12.1413,-5.69024 -24.28261,-11.38048 -36.42391,-17.070719 0.61465,-3.882 0.37855,-7.90289 -0.73024,-11.676144 12.02661,-5.00397 24.05322,-10.00794 36.07982,-15.011909 6.12128,7.220525 16.287335,10.724511 25.554545,8.762501 8.79854,-1.745775 16.53013,-8.183407 19.70372,-16.593431 2.9739,-7.62638 2.26773,-16.63125 -2.08254,-23.59632 -4.11891,-6.7860002 -11.34339,-11.6497202 -19.24729,-12.6449302 -1.69743,-0.23939 -3.41762,-0.29615 -5.12962,-0.22758 z"
     sodipodi:nodetypes="cccccccccccccccccccccccccc" /></svg>
