<?xml version="1.0" encoding="UTF-8" standalone="no"?>
<!-- Created with Inkscape (http://www.inkscape.org/) -->

<svg
   width="135.46667mm"
   height="135.46666mm"
   viewBox="0 0 135.46668 135.46667"
   version="1.1"
   id="svg5"
   xml:space="preserve"
   xmlns="http://www.w3.org/2000/svg"
   xmlns:svg="http://www.w3.org/2000/svg"><defs
     id="defs2"><style
       id="style2">.cls-1{fill-rule:evenodd;}</style><style
       id="style2-7">.cls-1{fill-rule:evenodd;}</style><style
       id="style2-1">.cls-1{fill-rule:evenodd;}</style><style
       id="style2-4">.cls-1{fill-rule:evenodd;}</style><style
       id="style2-8">.cls-1{fill-rule:evenodd;}</style><style
       id="style2-15">.cls-1{fill-rule:evenodd;}</style><style
       id="style2-3">.cls-1{fill-rule:evenodd;}</style><style
       id="style2-0">.cls-1{fill-rule:evenodd;}</style></defs><g
     id="g9080"
     transform="translate(2.9999999e-6,-291.04164)"><path
       id="path8-3"
       style="stroke-width:1.10288"
       class="cls-1"
       d="m 110.05622,300.04901 c -16.414637,0.19934 -32.832015,-0.0252 -49.247128,0.12771 -5.677752,-0.17554 -11.323553,2.20972 -15.280209,6.26096 -1.617369,1.58525 -3.306209,3.4252 -3.450858,5.80999 -0.15948,2.23879 0.01575,4.48768 -0.04914,6.73103 0,15.02344 0,30.04687 0,45.07031 3.299552,0.75961 6.743783,1.7161 9.262046,4.1162 4.831369,4.06219 7.738926,9.83151 10.285032,15.48735 1.537809,3.46399 2.90703,7.02658 3.78886,10.71481 0.02222,5.04881 -0.055,10.10403 0.05032,15.14879 0.700574,4.49904 4.988583,8.25617 9.604725,7.97238 4.653444,-0.10618 8.784171,-2.82299 11.962881,-6.03262 2.363553,-2.35424 4.380824,-5.27253 5.771439,-8.20039 1.388633,-2.89908 2.306341,-5.94557 2.743341,-9.16663 0.514946,-4.07184 0.398488,-8.2827 0.0092,-12.39357 -0.13831,-1.44695 -0.317642,-2.88932 -0.495407,-4.33187 7.422968,-0.052 14.852488,0.1332 22.270778,-0.14091 5.9431,-0.61383 11.98607,-3.24757 15.46548,-8.23622 2.62377,-3.75708 3.32551,-8.65976 2.20563,-13.06984 -0.32619,-1.4631 -0.84128,-2.88897 -1.42626,-4.2249 0.96058,-4.39382 1.19643,-9.21384 -0.77111,-13.37369 -0.47271,-0.93254 -1.07559,-1.79518 -1.76796,-2.57748 0.13111,-6.52039 -1.88634,-13.28179 -6.44336,-18.07422 -0.41157,-1.10541 -0.31534,-2.30092 -0.65487,-3.42898 -0.99143,-4.83141 -3.32663,-9.67436 -7.47794,-12.54172 -1.87536,-1.20785 -4.1448,-1.68997 -6.35547,-1.64649 z m -0.49414,8.99805 c 1.68723,-0.0766 3.21292,1.07146 3.8978,2.56508 1.61388,2.63324 1.73264,5.803 2.2594,8.7574 0.47988,1.64507 1.65964,2.92809 2.8182,4.13048 2.87198,3.51427 3.6427,8.26371 3.32777,12.6814 -0.0476,0.99764 -0.13019,1.99352 -0.19379,2.99064 1.26803,0.78052 3.00252,1.43456 3.28537,3.09724 0.51762,2.68952 -0.0294,5.42847 -0.61071,8.05549 -0.0777,1.60655 0.35571,3.19531 1.14358,4.58749 1.10574,2.52497 1.42243,5.75492 -0.37098,8.05079 -2.31161,2.9415 -6.1872,4.12457 -9.80166,4.25153 -3.70796,0.1664 -7.42018,-0.0327 -11.12998,0.0512 -6.673171,0 -13.346348,0 -20.019525,0 1.587956,8.25593 3.258829,16.69027 2.256091,25.12778 -0.898026,5.69929 -4.094624,11.17925 -9.063105,14.23646 -0.856128,0.51104 -1.807786,0.88934 -2.821892,0.8467 -0.286675,-1.39936 -0.04174,-2.82964 -0.132202,-4.24453 -0.04547,-3.93782 0.145986,-7.89406 -0.1698,-11.81875 -1.370195,-5.54061 -3.598614,-10.82813 -6.013799,-15.98425 -3.053229,-6.30901 -7.066309,-12.38606 -12.80334,-16.55794 -1.27316,-0.91079 -2.768273,-1.80152 -4.292968,-2.49414 0,-14.51368 0,-29.02735 0,-43.54102 2.273295,-2.92157 5.920876,-4.77181 9.648272,-4.62028 4.181614,-0.06 8.36418,0.0153 12.546259,-0.0209 11.782076,-0.0152 23.566004,0.0685 35.346699,-0.11332 0.2981,-0.0115 0.59619,-0.0241 0.89431,-0.0345 z" /><path
       d="m 4.411597,368.36994 h 31.2886 c 2.436447,5e-5 4.411601,-1.97507 4.4116,-4.41152 v -59.15845 c 10e-7,-2.43645 -1.975153,-4.41156 -4.4116,-4.41152 h -31.2886 c -2.436447,-4e-5 -4.411601,1.97507 -4.4116,4.41152 v 59.12536 c -1e-6,2.43645 1.975153,4.41157 4.4116,4.41152 z m 20.5576,-46.25476 c 5.040901,7e-5 7.564542,-6.09414 4.000544,-9.65819 -3.563998,-3.56405 -9.658236,-1.04049 -9.658244,4.00041 -4e-6,3.12468 2.533024,5.65774 5.6577,5.65778 z"
       style="fill-rule:evenodd;stroke-width:1.10288"
       id="path7304" /></g></svg>
