<?xml version="1.0" encoding="UTF-8" standalone="no"?>
<!-- Created with Inkscape (http://www.inkscape.org/) -->

<svg
   width="135.46663mm"
   height="135.46664mm"
   viewBox="0 0 135.46663 135.46665"
   version="1.1"
   id="svg5"
   xml:space="preserve"
   xmlns="http://www.w3.org/2000/svg"
   xmlns:svg="http://www.w3.org/2000/svg"><defs
     id="defs2"><style
       id="style2">.cls-1{fill-rule:evenodd;}</style><style
       id="style2-7">.cls-1{fill-rule:evenodd;}</style><style
       id="style2-1">.cls-1{fill-rule:evenodd;}</style><style
       id="style2-4">.cls-1{fill-rule:evenodd;}</style><style
       id="style2-8">.cls-1{fill-rule:evenodd;}</style><style
       id="style2-15">.cls-1{fill-rule:evenodd;}</style><style
       id="style2-3">.cls-1{fill-rule:evenodd;}</style><style
       id="style2-0">.cls-1{fill-rule:evenodd;}</style></defs><path
     class="cls-1"
     d="M 46.644894,-8.5391182e-6 A 46.627725,46.627728 0 0 1 85.448094,72.459771 l 9.4335,9.43355 0.099,-0.0992 a 5.9290276,5.929028 0 0 1 8.364596,0 l 30.3614,30.361449 a 5.940048,5.9400485 0 0 1 0,8.36456 l -13.2246,13.2246 a 5.940048,5.9400485 0 0 1 -8.3645,0 L 81.811094,103.32817 a 5.9290276,5.929028 0 0 1 0,-8.364559 l 0.099,-0.0992 -9.4336,-9.43354 A 46.627725,46.627728 0 1 1 46.644894,-4.8539118e-5 Z m 0,10.4694795391182 a 36.158252,36.158255 0 1 1 -36.1582,36.15825 36.158252,36.158255 0 0 1 36.1582,-36.15825 z"
     id="path8-4"
     style="stroke-width:1.10205" /></svg>
