<?xml version="1.0" encoding="UTF-8" standalone="no"?>
<!-- Created with Inkscape (http://www.inkscape.org/) -->

<svg
   width="135.46667mm"
   height="135.4666mm"
   viewBox="0 0 135.46668 135.46661"
   version="1.1"
   id="svg5"
   xml:space="preserve"
   xmlns="http://www.w3.org/2000/svg"
   xmlns:svg="http://www.w3.org/2000/svg"><defs
     id="defs2"><style
       id="style2">.cls-1{fill-rule:evenodd;}</style><style
       id="style2-7">.cls-1{fill-rule:evenodd;}</style><style
       id="style2-1">.cls-1{fill-rule:evenodd;}</style><style
       id="style2-4">.cls-1{fill-rule:evenodd;}</style><style
       id="style2-8">.cls-1{fill-rule:evenodd;}</style><style
       id="style2-15">.cls-1{fill-rule:evenodd;}</style><style
       id="style2-3">.cls-1{fill-rule:evenodd;}</style><style
       id="style2-0">.cls-1{fill-rule:evenodd;}</style></defs><path
     fill-rule="nonzero"
     d="m 97.136551,57.108388 -30.7658,-25.54288 -10.403405,9.64406 c 2.4077,1.28588 5.132903,2.47386 8.202105,3.54277 1.0239,-0.61118 2.1749,-0.93133 3.4528,-0.9525 1.9526,-0.0265 3.6274,0.62707 5.0086,1.96586 1.3943,1.34673 2.1113,2.98979 2.159,4.9186 0.055,1.9394 -0.5874,3.64331 -1.9341,5.11175 -1.3362,1.38113 -2.9898,2.08757 -4.9451,2.1299 -1.9606,0.0185 -3.638,-0.635 -5.0191,-1.97379 -1.418202,-1.29911 -2.153802,-2.94217 -2.214602,-4.91861 -0.01,-0.34925 0.01,-0.68791 0.04,-1.02129 -3.556003,-1.32027 -6.696603,-2.81517 -9.458903,-4.43442 l -12.3587,11.45382 -0.6535,68.429192 c -0.016,1.79123 1.2991,3.32581 3.1406,3.32581 l 52.506605,0.52652 c 1.8441,0.0291 3.3099,-1.32027 3.3284,-3.18029 z m -32.1125,11.84275 h 6.8077 l -0.164,4.2836 c 2.8601,0.17727 5.3604,0.46567 7.5062,0.8599 l -1.5557,7.10406 h -8.0354 c -1.2383,0 -2.0876,0.20108 -2.4924,0.59002 -0.4048,0.39423 -0.635,2.33892 -0.6668,3.44752 l 3.3708,0.37571 c 4.1117,0.46567 6.9401,1.51871 8.4905,3.16177 1.5558,1.64306 2.331,3.76767 2.331,6.37381 0,2.61144 -0.2699,4.68842 -0.8043,6.244172 -0.5345,1.5531 -1.3018,2.73844 -2.3019,3.55865 -1.8204,1.39435 -4.2148,2.19868 -7.1808,2.41564 l -0.1561,5.40809 h -6.9109 l 0.209,-5.40809 c -3.392002,-0.254 -6.265305,-0.68262 -8.620105,-1.28587 l 1.5504,-7.326312 c 2.966003,0.78845 6.072205,1.18268 9.323905,1.18268 1.3547,0 2.6221,-0.0714 3.7995,-0.21695 v -3.44488 l -3.3179,-0.37571 c -4.288902,-0.42598 -7.143802,-1.6801 -8.575205,-3.74914 -1.2488,-1.82034 -1.8732,-4.1963 -1.8732,-7.12523 0,-3.86292 0.7964,-6.6675 2.3839,-8.41375 1.590103,-1.7489 3.833803,-2.82046 6.725705,-3.21469 z m 20.5026,-29.4058 c -7.7444,-20.20094 -17.2191,-29.6941899 -25.603802,-32.4961299 -5.783803,-1.9341 -11.019903,-0.51064 -14.544103,2.74109 -3.5507,3.2781899 -5.424,8.4375599 -4.4477,13.9064999 0.8599,4.75721 3.8471,9.76842 9.6838,14.13933 l 13.557205,-12.56771 c 1.1113,-1.02129 2.8417,-1.09273 4.0323,-0.10583 z m -39.457405,2.50032 c -6.6436,-5.26521 -10.1044,-11.38767 -11.1521,-17.27201 -1.3521,-7.62264 1.3017,-14.8484099 6.3235,-19.4839199 5.0641,-4.67254001 12.4936,-6.74423 20.619003,-4.02695 11.178602,3.73591 23.783402,16.8857099 32.684002,45.7438099 l -0.021,0.008 7.522099,6.24417 c 0.725,0.56092 1.1906,1.43669 1.1906,2.42094 l 0.085,70.485002 c -0.063,5.26256 -4.230699,9.3345 -9.498599,9.24983 l -52.448305,-0.52652 c -5.2811,0 -9.2578,-4.32064 -9.226,-9.47473 l 0.6641,-69.582772 c -0.045,-0.86783 0.2804,-1.75154 0.9683,-2.38919 z"
     id="path2-2"
     style="stroke-width:0.264583" /></svg>
