<?xml version="1.0" encoding="UTF-8" standalone="no"?>
<!-- Created with Inkscape (http://www.inkscape.org/) -->

<svg
   width="135.46669mm"
   height="135.46666mm"
   viewBox="0 0 135.46669 135.46667"
   version="1.1"
   id="svg5"
   xml:space="preserve"
   xmlns="http://www.w3.org/2000/svg"
   xmlns:svg="http://www.w3.org/2000/svg"><defs
     id="defs2"><style
       id="style2">.cls-1{fill-rule:evenodd;}</style><style
       id="style2-7">.cls-1{fill-rule:evenodd;}</style><style
       id="style2-1">.cls-1{fill-rule:evenodd;}</style><style
       id="style2-4">.cls-1{fill-rule:evenodd;}</style><style
       id="style2-8">.cls-1{fill-rule:evenodd;}</style><style
       id="style2-15">.cls-1{fill-rule:evenodd;}</style><style
       id="style2-3">.cls-1{fill-rule:evenodd;}</style><style
       id="style2-0">.cls-1{fill-rule:evenodd;}</style></defs><path
     id="path2-0"
     style="stroke-width:0.0346918"
     d="M 107.26963,0.97996573 C 97.384754,1.4403757 88.048484,7.8971857 84.174724,17.009826 c -2.61335,5.98319 -2.99172,12.94194 -0.90159,19.14002 -11.90362,4.95108 -23.80724,9.902168 -35.71087,14.85325 -5.82998,-7.418524 -15.8003,-11.3496 -25.12053,-9.76453 -8.67672,1.37695 -16.5206899,7.268045 -20.1204799,15.302778 -3.38408,7.326069 -3.26570997,16.203932 0.49911,23.366521 3.64123,7.15237 10.6130399,12.547711 18.5136599,14.079081 7.11852,1.457599 14.82278,-0.08372 20.73998,-4.332912 2.98245,-2.097618 5.55543,-4.789625 7.45722,-7.904527 11.4391,5.362717 22.87821,10.725434 34.3173,16.08815 -3.69772,9.058833 -1.82592,20.110443 4.6869,27.422783 5.61715,6.50206 14.484536,10.07792 23.044286,9.09112 8.38599,-0.86594 16.24276,-5.9132 20.40217,-13.26551 3.90252,-6.72754 4.72716,-15.18782 2.00655,-22.496071 -2.79101,-7.735824 -9.28089,-14.075864 -17.17267,-16.478549 -7.41854,-2.353184 -15.8608,-1.302122 -22.401286,2.949314 -1.7715,1.128593 -3.41588,2.460238 -4.86933,3.977751 -12.1413,-5.69024 -24.28261,-11.38048 -36.42391,-17.070719 0.61465,-3.882 0.37855,-7.90289 -0.73024,-11.676144 12.02661,-5.00397 24.05322,-10.00794 36.07982,-15.01191 6.12128,7.220526 16.287336,10.724512 25.554546,8.762502 8.79854,-1.745775 16.53013,-8.183407 19.70372,-16.593428 2.9739,-7.62638 2.26773,-16.63125 -2.08254,-23.59632 C 127.52763,7.0664757 120.30315,2.2027557 112.39925,1.2075457 110.70182,0.96815573 108.98163,0.91139573 107.26963,0.97996573 Z m 1.45474,10.38962027 c 4.51008,-0.0386 8.93857,1.99092 12.00303,5.27224 2.31476,2.45667 3.88538,5.81932 4.24212,9.24336 0.36714,3.45685 -0.30704,6.92768 -2.02073,9.96993 -1.73476,3.05788 -4.5798,5.57904 -7.80869,6.94399 -4.50268,1.996346 -9.9591,1.759276 -14.27919,-0.67877 -4.231276,-2.3123 -7.348396,-6.44463 -8.226486,-11.21041 -1.09443,-5.3281 0.70243,-11.1371 4.65006,-14.88605 3.027186,-2.95142 7.205056,-4.67789 11.439886,-4.65429 z M 26.626254,51.301308 c 4.42184,-0.06077 8.83635,1.957054 11.83863,5.077248 2.93096,3.006203 4.63937,7.340457 4.51775,11.598126 -0.0258,5.259672 -2.82786,10.375613 -7.21244,13.270121 -3.05544,2.073084 -6.72417,3.085673 -10.39605,2.775615 -3.21,-0.258809 -6.49326,-1.507542 -9.03727,-3.588366 -4.04324,-3.241448 -6.4114399,-8.460126 -6.07532,-13.643105 0.23011,-4.398778 2.37067,-8.871305 5.90514,-11.698381 2.90861,-2.415927 6.67019,-3.817233 10.45956,-3.791258 z m 82.098116,39.964218 c 6.52157,-0.06133 12.8344,4.20708 15.1835,10.297354 2.34915,5.72587 1.07373,12.74026 -3.20052,17.22972 -3.36168,3.63019 -8.5128,5.65223 -13.38229,5.1883 -5.15187,-0.40002 -10.133276,-3.52411 -12.771496,-8.05746 -1.27938,-2.177 -2.04371,-4.71628 -2.18444,-7.1519 -0.31072,-4.43279 1.22908,-8.980492 4.26636,-12.191731 1.67035,-1.803286 3.749716,-3.225886 5.967046,-4.12309 1.96406,-0.81738 4.04968,-1.189052 6.12184,-1.191193 z" /></svg>
