<?xml version="1.0" encoding="UTF-8" standalone="no"?>
<!-- Created with Inkscape (http://www.inkscape.org/) -->

<svg
   width="135.46669mm"
   height="135.46666mm"
   viewBox="0 0 135.46669 135.46667"
   version="1.1"
   id="svg5"
   inkscape:version="1.2.2 (b0a8486541, 2022-12-01)"
   sodipodi:docname="ui-elements.svg"
   xml:space="preserve"
   xmlns:inkscape="http://www.inkscape.org/namespaces/inkscape"
   xmlns:sodipodi="http://sodipodi.sourceforge.net/DTD/sodipodi-0.dtd"
   xmlns="http://www.w3.org/2000/svg"
   xmlns:svg="http://www.w3.org/2000/svg"><sodipodi:namedview
     id="namedview7"
     pagecolor="#bfbfbf"
     bordercolor="#eeeeee"
     borderopacity="1"
     inkscape:showpageshadow="0"
     inkscape:pageopacity="0"
     inkscape:pagecheckerboard="false"
     inkscape:deskcolor="#505050"
     inkscape:document-units="px"
     showgrid="true"
     showborder="false"
     borderlayer="true"
     shape-rendering="auto"
     showguides="false"
     inkscape:zoom="0.1767767"
     inkscape:cx="673.16565"
     inkscape:cy="1434.0126"
     inkscape:window-width="1852"
     inkscape:window-height="1080"
     inkscape:window-x="68"
     inkscape:window-y="0"
     inkscape:window-maximized="1"
     inkscape:current-layer="svg5"><inkscape:grid
       type="xygrid"
       id="grid2143"
       visible="true"
       enabled="true"
       color="#0099e5"
       opacity="0.14901961"
       empcolor="#e500dc"
       empopacity="0.16078431"
       empspacing="0"
       dotted="false"
       snapvisiblegridlinesonly="false"
       spacingx="2.6458333"
       spacingy="2.6458333"
       originx="79.374996"
       originy="-277.81251" /></sodipodi:namedview><defs
     id="defs2"><style
       id="style2">.cls-1{fill-rule:evenodd;}</style><style
       id="style2-7">.cls-1{fill-rule:evenodd;}</style><style
       id="style2-1">.cls-1{fill-rule:evenodd;}</style><style
       id="style2-4">.cls-1{fill-rule:evenodd;}</style><style
       id="style2-8">.cls-1{fill-rule:evenodd;}</style><style
       id="style2-15">.cls-1{fill-rule:evenodd;}</style><style
       id="style2-3">.cls-1{fill-rule:evenodd;}</style><style
       id="style2-0">.cls-1{fill-rule:evenodd;}</style></defs><g
     id="g13420"
     transform="translate(1.4130533e-5,-291.04164)"><path
       id="path13416"
       style="stroke-width:1.10288"
       class="cls-1"
       d="m 110.05622,300.04901 c -16.414637,0.19934 -32.832015,-0.0252 -49.247128,0.12771 -5.677752,-0.17554 -11.323553,2.20972 -15.280209,6.26096 -1.617369,1.58525 -3.306209,3.4252 -3.450858,5.80999 -0.15948,2.23879 0.01575,4.48768 -0.04914,6.73103 v 45.07031 c 3.299552,0.75961 6.743783,1.7161 9.262046,4.1162 4.831369,4.06219 7.738926,9.83151 10.285032,15.48735 1.537809,3.46399 2.90703,7.02658 3.78886,10.71481 0.02222,5.04881 -0.055,10.10403 0.05032,15.14879 0.700574,4.49904 4.988583,8.25617 9.604725,7.97238 4.653444,-0.10618 8.784171,-2.82299 11.962881,-6.03262 2.363553,-2.35424 4.380824,-5.27253 5.771439,-8.20039 1.388633,-2.89908 2.306341,-5.94557 2.743341,-9.16663 0.514946,-4.07184 0.398488,-8.2827 0.0092,-12.39357 -0.13831,-1.44695 -0.317642,-2.88932 -0.495407,-4.33187 7.422968,-0.052 14.852488,0.1332 22.270778,-0.14091 5.9431,-0.61383 11.98607,-3.24757 15.46548,-8.23622 2.62377,-3.75708 3.32551,-8.65976 2.20563,-13.06984 -0.32619,-1.4631 -0.84128,-2.88897 -1.42626,-4.2249 0.96058,-4.39382 1.19643,-9.21384 -0.77111,-13.37369 -0.47271,-0.93254 -1.07559,-1.79518 -1.76796,-2.57748 0.13111,-6.52039 -1.88634,-13.28179 -6.44336,-18.07422 -0.41157,-1.10541 -0.31534,-2.30092 -0.65487,-3.42898 -0.99143,-4.83141 -3.32663,-9.67436 -7.47794,-12.54172 -1.87536,-1.20785 -4.1448,-1.68997 -6.35547,-1.64649 z"
       sodipodi:nodetypes="sccccccccccccccccccccccccss" /><path
       d="m 4.411597,368.36994 h 31.2886 c 2.436447,5e-5 4.411601,-1.97507 4.4116,-4.41152 v -59.15845 c 10e-7,-2.43645 -1.975153,-4.41156 -4.4116,-4.41152 h -31.2886 c -2.436447,-4e-5 -4.411601,1.97507 -4.4116,4.41152 v 59.12536 c -1e-6,2.43645 1.975153,4.41157 4.4116,4.41152 z m 20.5576,-46.25476 c 5.040901,7e-5 7.564542,-6.09414 4.000544,-9.65819 -3.563998,-3.56405 -9.658236,-1.04049 -9.658244,4.00041 -4e-6,3.12468 2.533024,5.65774 5.6577,5.65778 z"
       style="fill-rule:evenodd;stroke-width:1.10288"
       id="path13418" /></g></svg>
