<?xml version="1.0" encoding="UTF-8" standalone="no"?>
<!-- Created with Inkscape (http://www.inkscape.org/) -->

<svg
   width="135.46667mm"
   height="135.46666mm"
   viewBox="0 0 135.46668 135.46667"
   version="1.1"
   id="svg5"
   xml:space="preserve"
   xmlns="http://www.w3.org/2000/svg"
   xmlns:svg="http://www.w3.org/2000/svg"><defs
     id="defs2"><style
       id="style2">.cls-1{fill-rule:evenodd;}</style><style
       id="style2-7">.cls-1{fill-rule:evenodd;}</style><style
       id="style2-1">.cls-1{fill-rule:evenodd;}</style><style
       id="style2-4">.cls-1{fill-rule:evenodd;}</style><style
       id="style2-8">.cls-1{fill-rule:evenodd;}</style><style
       id="style2-15">.cls-1{fill-rule:evenodd;}</style><style
       id="style2-3">.cls-1{fill-rule:evenodd;}</style><style
       id="style2-0">.cls-1{fill-rule:evenodd;}</style></defs><g
     id="g6"
     transform="matrix(1.1024306,0,0,1.1024307,6.3870454e-6,-6.5365255e-8)"><path
       class="st0"
       d="m 61.44,0 c 16.97,0 32.33,6.88 43.44,18 11.12,11.12 18,26.48 18,43.44 0,16.97 -6.88,32.33 -18,43.44 -11.12,11.12 -26.48,18 -43.44,18 C 44.48,122.88 29.11,116 18,104.88 6.88,93.77 0,78.41 0,61.44 0,44.47 6.88,29.11 18,18 29.11,6.88 44.47,0 61.44,0 Z M 76.85,117.08 76.73,117 83.62,93.91 69.41,78.15 52.66,78 39.38,94.62 l 6.66,22.32 -0.15,0.1 c 4.95,1.38 10.16,2.12 15.55,2.12 5.34,0 10.51,-0.72 15.41,-2.08 z M 12.22,91.61 36.56,91.73 49.28,75.8 44.02,59.68 22.6,50.38 3.78,64.08 c 0.45,10.06 3.48,19.45 8.44,27.53 z m 4.55,-66.73 7.4,22.14 19.98,8.68 15.44,-11.97 V 20.94 L 40.51,7.63 c -7.52,2.93 -14.28,7.39 -19.89,13 -1.35,1.35 -2.64,2.77 -3.85,4.25 z M 81.7,7.37 63.3,20.77 V 43.7 l 14.5,11.21 20.81,-8.92 7.18,-21.49 c -1.12,-1.35 -2.3,-2.64 -3.54,-3.88 C 96.48,14.85 89.49,10.29 81.7,7.37 Z m 37.39,56.99 -0.02,0.01 L 99.09,49.82 79.28,58.31 73.2,76.34 86.93,91.57 c 0.06,0.06 0.09,0.13 0.11,0.21 l 23.6,-0.11 c 4.92,-8.02 7.95,-17.33 8.45,-27.31 z"
       id="path4" /></g></svg>
