<?xml version="1.0" encoding="UTF-8" standalone="no"?>
<!-- Created with Inkscape (http://www.inkscape.org/) -->

<svg
   width="135.46667mm"
   height="135.46666mm"
   viewBox="0 0 135.46668 135.46667"
   version="1.1"
   id="svg5"
   xml:space="preserve"
   xmlns="http://www.w3.org/2000/svg"
   xmlns:svg="http://www.w3.org/2000/svg"><defs
     id="defs2"><style
       id="style2">.cls-1{fill-rule:evenodd;}</style><style
       id="style2-7">.cls-1{fill-rule:evenodd;}</style><style
       id="style2-1">.cls-1{fill-rule:evenodd;}</style><style
       id="style2-4">.cls-1{fill-rule:evenodd;}</style><style
       id="style2-8">.cls-1{fill-rule:evenodd;}</style><style
       id="style2-15">.cls-1{fill-rule:evenodd;}</style><style
       id="style2-3">.cls-1{fill-rule:evenodd;}</style><style
       id="style2-0">.cls-1{fill-rule:evenodd;}</style></defs><path
     class="cls-1"
     d="m 21.376075,80.504985 v 43.920845 a 2.0284723,2.0284724 0 0 1 -2.01745,2.00642 H 2.0173954 A 2.0174479,2.0174481 0 0 1 -5.4648111e-5,124.42583 V 80.504985 Z M -5.4648111e-5,66.162355 45.850035,26.044903 c 10.15338,9.92188 19.998095,21.971446 30.041235,31.893322 L 112.52504,21.150113 100.72903,9.3320533 135.46662,9.0233733 V 44.058623 l -11.32197,-11.32197 c -8.12491,8.23516 -27.34027,26.370152 -35.46518,34.506082 -10.28568,10.27466 -15.1915,10.46207 -25.46615,0.18742 L 45.850035,48.115569 25.499165,66.162355 Z M 126.08493,51.676419 v 72.760431 a 2.0284723,2.0284724 0 0 1 -2.00642,2.00642 h -17.35226 a 2.0284723,2.0284724 0 0 1 -1.9954,-2.01744 V 72.181625 c 3.30729,-3.20807 7.1658,-6.93429 11.10148,-10.72665 l 8.21311,-7.90442 a 26.634723,26.634725 0 0 1 2.06154,-1.874136 z M 91.18198,84.363485 v 40.062345 a 2.0284723,2.0284724 0 0 1 -2.01745,2.00642 H 71.8233 a 2.0284723,2.0284724 0 0 1 -2.01745,-2.00642 V 88.640925 a 24.782639,24.782641 0 0 0 6.31693,0.69453 26.458334,26.458336 0 0 0 15.0592,-4.97197 z M 56.279025,81.056196 V 124.3707 a 2.0284723,2.0284724 0 0 1 -2.01745,2.00643 h -17.35226 a 2.0174479,2.0174481 0 0 1 -2.00642,-2.00643 V 77.374076 q 0.52917,-0.39687 1.02526,-0.82682 l 8.66511,-7.71702 6.9894,7.71702 0.5402,0.56224 q 2.11666,2.12769 4.15616,3.88055 z"
     id="path8"
     style="stroke-width:1.10243" /></svg>
