<?xml version="1.0" encoding="UTF-8" standalone="no"?>
<!-- Created with Inkscape (http://www.inkscape.org/) -->

<svg
   width="135.46661mm"
   height="135.46666mm"
   viewBox="0 0 135.46661 135.46667"
   version="1.1"
   id="svg5"
   xml:space="preserve"
   xmlns="http://www.w3.org/2000/svg"
   xmlns:svg="http://www.w3.org/2000/svg"><defs
     id="defs2"><style
       id="style2">.cls-1{fill-rule:evenodd;}</style><style
       id="style2-7">.cls-1{fill-rule:evenodd;}</style><style
       id="style2-1">.cls-1{fill-rule:evenodd;}</style><style
       id="style2-4">.cls-1{fill-rule:evenodd;}</style><style
       id="style2-8">.cls-1{fill-rule:evenodd;}</style><style
       id="style2-15">.cls-1{fill-rule:evenodd;}</style><style
       id="style2-3">.cls-1{fill-rule:evenodd;}</style><style
       id="style2-0">.cls-1{fill-rule:evenodd;}</style></defs><g
     id="g4"
     transform="matrix(1.1024329,0,0,1.102433,-4.22847e-4,6.7312591)"><path
       fill-rule="evenodd"
       clip-rule="evenodd"
       d="m 91.124,15.645 c 12.928,0 23.406,10.479 23.406,23.406 0,12.927 -10.479,23.406 -23.406,23.406 -12.927,0 -23.406,-10.479 -23.406,-23.406 0,-12.926 10.479,-23.406 23.406,-23.406 z M 2.756,0 h 117.322 c 1.548,0 2.802,1.254 2.802,2.802 0,0.848 -0.368,1.622 -0.996,2.139 l -10.667,13.556 c -1.405,-1.375 -2.95,-2.607 -4.614,-3.672 l 6.628,-9.22 H 9.43 l 37.975,46.171 c 0.59,0.516 0.958,1.254 0.958,2.102 v 49.148 L 69.419,93.403 V 57.896 c 1.651,1.9 3.548,3.582 5.642,4.996 v 32.133 c 0,1.105 -0.627,2.064 -1.586,2.506 l -26.476,12.758 c -1.327,0.773 -3.023,0.332 -3.798,-1.033 -0.258,-0.441 -0.368,-0.92 -0.368,-1.4 V 55.02 L 0.803,4.756 C -0.267,3.65 -0.267,1.917 0.803,0.811 1.355,0.258 2.056,0 2.756,0 Z M 96.93,28.282 c 1.328,-1.349 3.489,-1.355 4.825,-0.013 1.335,1.342 1.341,3.524 0.013,4.872 l -5.829,5.914 5.836,5.919 c 1.317,1.338 1.299,3.506 -0.04,4.843 -1.34,1.336 -3.493,1.333 -4.81,-0.006 l -5.797,-5.878 -5.807,5.889 c -1.329,1.349 -3.489,1.355 -4.826,0.013 -1.335,-1.342 -1.341,-3.523 -0.013,-4.872 l 5.83,-5.913 -5.836,-5.919 c -1.317,-1.338 -1.3,-3.507 0.04,-4.843 1.339,-1.336 3.492,-1.333 4.81,0.006 l 5.796,5.878 z"
       id="path2-1" /></g></svg>
