<?xml version="1.0" encoding="UTF-8" standalone="no"?>
<!-- Created with Inkscape (http://www.inkscape.org/) -->

<svg
   width="135.46667mm"
   height="135.46666mm"
   viewBox="0 0 135.46668 135.46667"
   version="1.1"
   id="svg5"
   xml:space="preserve"
   xmlns="http://www.w3.org/2000/svg"
   xmlns:svg="http://www.w3.org/2000/svg"><defs
     id="defs2"><style
       id="style2">.cls-1{fill-rule:evenodd;}</style><style
       id="style2-7">.cls-1{fill-rule:evenodd;}</style><style
       id="style2-1">.cls-1{fill-rule:evenodd;}</style><style
       id="style2-4">.cls-1{fill-rule:evenodd;}</style><style
       id="style2-8">.cls-1{fill-rule:evenodd;}</style><style
       id="style2-15">.cls-1{fill-rule:evenodd;}</style><style
       id="style2-3">.cls-1{fill-rule:evenodd;}</style><style
       id="style2-0">.cls-1{fill-rule:evenodd;}</style></defs><path
     fill-rule="nonzero"
     d="m 67.733334,0 c 18.70075,0 35.634076,7.582959 47.892226,19.841106 12.25814,12.258147 19.8411,29.191481 19.8411,47.892233 0,18.700752 -7.58296,35.634091 -19.8411,47.892231 -12.25815,12.25815 -29.191476,19.84111 -47.892226,19.84111 -18.70075,0 -35.63409,-7.58296 -47.89223,-19.84111 C 7.5829541,103.36743 -5.9316371e-6,86.434091 -5.9316371e-6,67.733339 -5.9316371e-6,49.032587 7.5829541,32.099253 19.841104,19.841106 32.099244,7.582959 49.032584,0 67.733334,0 Z m 0,97.020071 c -3.72269,0 -6.77069,-3.055938 -6.77069,-6.770688 V 74.501381 h -15.74535 c -3.7174,0 -6.77334,-3.053292 -6.77334,-6.773334 0,-3.717396 3.048,-6.770688 6.77334,-6.770688 h 15.74535 V 45.212004 c 0,-3.717396 3.05065,-6.770688 6.77069,-6.770688 3.72004,0 6.77069,3.045354 6.77069,6.770688 v 15.745355 h 15.748 c 3.72268,0 6.77333,3.048001 6.77333,6.770688 0,3.725334 -3.05594,6.773334 -6.77333,6.773334 h -15.748 v 15.748002 c 0,3.722687 -3.048,6.770688 -6.77069,6.770688 z M 109.23852,26.228148 C 98.618144,15.607772 83.941704,9.0381674 67.733334,9.0381674 c -16.20838,0 -30.88482,6.5696046 -41.50519,17.1899806 -10.62038,10.620376 -17.1899799,25.296815 -17.1899799,41.505191 0,16.208376 6.5695999,30.884815 17.1899799,41.505191 10.62037,10.62038 25.29681,17.18998 41.50519,17.18998 16.20837,0 30.88481,-6.5696 41.505186,-17.18998 10.62037,-10.620376 17.18998,-25.296815 17.18998,-41.505191 0,-16.208376 -6.56961,-30.884815 -17.18998,-41.505191 z"
     id="path30332"
     style="stroke-width:0.264583" /></svg>
