<?xml version="1.0" encoding="UTF-8" standalone="no"?>
<!-- Created with Inkscape (http://www.inkscape.org/) -->

<svg
   width="135.46667mm"
   height="135.46666mm"
   viewBox="0 0 135.46668 135.46667"
   version="1.1"
   id="svg5"
   xml:space="preserve"
   xmlns="http://www.w3.org/2000/svg"
   xmlns:svg="http://www.w3.org/2000/svg"><defs
     id="defs2"><style
       id="style2">.cls-1{fill-rule:evenodd;}</style><style
       id="style2-7">.cls-1{fill-rule:evenodd;}</style><style
       id="style2-1">.cls-1{fill-rule:evenodd;}</style><style
       id="style2-4">.cls-1{fill-rule:evenodd;}</style><style
       id="style2-8">.cls-1{fill-rule:evenodd;}</style><style
       id="style2-15">.cls-1{fill-rule:evenodd;}</style><style
       id="style2-3">.cls-1{fill-rule:evenodd;}</style><style
       id="style2-0">.cls-1{fill-rule:evenodd;}</style></defs><g
     id="g25445"
     transform="matrix(1.1094182,0,0,1.0981242,10.847935,0.26459912)"><path
       class="st0"
       d="M 102.55,122.88 H 0 V 0 h 77.66 l 24.89,26.44 z M 29.82,45.51 c 4.33,0 7.84,3.5 7.84,7.83 0,4.32 -3.51,7.83 -7.84,7.83 -4.32,0 -7.83,-3.51 -7.83,-7.83 0,-4.33 3.51,-7.83 7.83,-7.83 z m 32.89,29.76 14.02,-24.24 2.07,-3.57 1.52,3.84 9.45,44.84 h -75.3 v -9.12 l 2.87,-0.1 5.26,-0.27 6.06,-14.81 3.77,0.2 2.84,9.98 h 6.92 l 8,-20.59 1.43,-3.69 2.12,3.33 z m 33.42,40.71 V 32.36 H 73.45 V 5.91 H 6.51 v 110.07 z"
       id="path25443"
       style="clip-rule:evenodd;fill-rule:evenodd" /></g></svg>
